<svg width="40" height="40" viewBox="0 0 40 40" fill="none" xmlns="http://www.w3.org/2000/svg">
<path d="M11.1714 3.43893C6.8042 4.04049 3.2417 6.57955 1.3042 10.4467C0.460449 12.1342 0.0463867 13.9702 0.0463867 16.017C0.0463867 17.3139 0.116699 17.9545 0.397949 19.103C1.77295 24.6655 6.91357 28.6889 12.6323 28.6733C13.1401 28.6655 13.8042 28.6342 14.1011 28.5952C15.5854 28.392 15.4604 28.3842 15.5542 28.6655C15.9526 29.8139 17.0776 31.5639 18.1245 32.6733C23.0308 37.892 31.312 37.9624 36.3433 32.8452C38.2573 30.892 39.3589 28.6967 39.8511 25.8608C40.0073 24.978 39.9839 22.6967 39.8198 21.8374C39.2651 19.0092 38.1011 16.8452 36.0776 14.8764C34.6011 13.4389 33.0698 12.5249 31.0933 11.892C29.4214 11.353 27.3433 11.1889 25.5698 11.4545C25.1167 11.517 24.7026 11.5639 24.6401 11.5483C24.5776 11.5327 24.4058 11.2436 24.2573 10.8999C22.6323 7.15767 19.1948 4.40768 15.1089 3.58736C14.1558 3.39986 12.0542 3.32174 11.1714 3.43893ZM15.1558 4.7983C17.9136 5.44674 20.1479 6.86861 21.8354 9.06392C22.2886 9.64986 22.9058 10.7124 23.2104 11.4077L23.4214 11.9155L22.7104 12.1967C19.0933 13.603 16.3276 16.603 15.2104 20.3139C14.7729 21.7749 14.7261 22.1342 14.7261 24.0249C14.7339 25.478 14.7573 25.8608 14.8979 26.4858C14.9917 26.892 15.0542 27.2358 15.0386 27.2514C14.9526 27.3452 13.4604 27.5014 12.6714 27.5014C10.2339 27.5014 8.00732 26.7827 5.93701 25.3217C4.92139 24.6108 3.64014 23.2358 2.9292 22.1108C2.23389 21.0092 1.60107 19.3686 1.35889 18.0327C1.19482 17.1342 1.17139 15.0639 1.31982 14.2202C1.56201 12.7905 2.20264 11.0795 2.91357 9.96236C4.60107 7.28267 7.31982 5.38424 10.3589 4.77486C11.5229 4.54049 11.5073 4.54049 12.9683 4.57174C14.0776 4.59518 14.4917 4.63424 15.1558 4.7983ZM29.0308 12.6186C30.0542 12.7749 31.2104 13.1108 32.0933 13.5249L32.7729 13.8452L31.9136 14.6733C28.4839 17.978 24.0386 20.2202 18.8667 21.2514C17.8511 21.4545 16.1479 21.7124 16.1011 21.6733C16.0386 21.6186 16.2651 20.7358 16.5386 20.0014C17.9683 16.1108 21.4292 13.2749 25.5464 12.6186C26.4604 12.478 28.062 12.478 29.0308 12.6186ZM34.4917 15.017C36.687 16.7436 38.2808 19.5014 38.6792 22.2749L38.7729 22.9311L38.2808 23.6342C37.0776 25.3295 35.5151 26.9389 33.8667 28.1733C30.3354 30.8217 25.5386 32.3764 20.4526 32.517L19.6167 32.5405L19.3276 32.267C19.1714 32.1186 18.8276 31.728 18.5542 31.4077C16.7651 29.2592 15.8589 26.7827 15.8589 23.9936V22.9155L16.8589 22.7827C19.0229 22.4858 20.6636 22.1108 22.6323 21.478C26.6089 20.1889 29.937 18.2045 32.812 15.4155C33.3511 14.892 33.8198 14.4936 33.8667 14.5249C33.9136 14.5561 34.1948 14.7827 34.4917 15.017ZM38.7183 25.4858C38.5308 27.1342 37.8276 28.9467 36.7729 30.5014C36.1558 31.4155 34.7026 32.8686 33.812 33.4624C31.6636 34.8999 29.3667 35.5561 26.8511 35.4467C25.0386 35.3686 23.8901 35.0717 22.187 34.2358L21.1323 33.7124L21.5229 33.6577C21.7417 33.6264 22.4214 33.5483 23.0464 33.478C25.1401 33.2514 27.6089 32.6577 29.3823 31.9545C31.5464 31.103 33.8354 29.767 35.4292 28.4389C36.3042 27.7045 37.6245 26.3764 38.2417 25.603C38.4995 25.2749 38.7261 25.0092 38.7417 25.0092C38.7573 25.0014 38.7417 25.2202 38.7183 25.4858Z" fill="#43392F"/>
<path d="M14.0232 5.68062C13.9919 5.93062 13.9685 6.18062 13.9607 6.24312C13.9529 6.32124 14.1326 6.39937 14.5701 6.49312C14.9138 6.57124 15.2341 6.63374 15.2888 6.63374C15.3748 6.64156 15.7341 5.63374 15.6716 5.56343C15.6169 5.51656 14.8513 5.32906 14.4607 5.27437L14.0779 5.21968L14.0232 5.68062Z" fill="#43392F"/>
<path d="M16.6089 6.43066C16.4995 6.69629 16.4058 6.93848 16.4058 6.96973C16.4058 7.00098 16.6636 7.15723 16.9761 7.31348C17.9214 7.79004 18.6714 8.34473 19.5229 9.19629C19.9683 9.63379 20.3511 10.001 20.3589 10.001C20.3745 10.001 20.5776 9.85254 20.812 9.67285L21.2339 9.34473L21.0933 9.1416C21.0151 9.03223 20.687 8.67285 20.3589 8.34473C19.4526 7.43848 18.2573 6.58691 17.2417 6.1416L16.812 5.94629L16.6089 6.43066Z" fill="#43392F"/>
<path d="M7.22606 9.54081C5.22606 9.85331 3.53074 11.0877 2.68699 12.8533C1.92918 14.4314 1.90574 16.3221 2.62449 17.8767C3.98387 20.8533 7.30418 22.1658 10.3511 20.9314C11.8667 20.3142 13.1792 18.8767 13.7261 17.2283C13.9136 16.6736 13.937 16.4783 13.937 15.5096C13.9448 14.2752 13.8432 13.7752 13.3901 12.8377C12.6636 11.3142 11.0698 10.033 9.43699 9.65018C8.77293 9.50175 7.79637 9.44706 7.22606 9.54081ZM9.42918 10.8689C11.0073 11.3455 12.3979 12.8533 12.7261 14.4392C13.312 17.283 11.2339 20.0096 8.31981 20.2127C7.14793 20.2908 5.75731 19.8142 4.86668 19.0252C4.34324 18.5642 3.73387 17.658 3.5073 16.9783C3.34324 16.5252 3.3198 16.2986 3.3198 15.4314C3.3198 14.5642 3.35105 14.3377 3.49949 13.908C4.10887 12.2205 5.52293 11.0252 7.28074 10.7049C7.85106 10.6033 8.79637 10.6814 9.42918 10.8689Z" fill="#43392F"/>
<path d="M7.06214 12.5406C6.30432 12.9156 6.01526 13.7749 6.44495 14.3999L6.63245 14.6812L6.34339 14.7593C5.96839 14.8687 5.4762 15.2749 5.34339 15.5953C5.17932 15.9859 5.20276 16.689 5.39807 17.0874C5.92151 18.1734 7.6012 18.6968 8.64026 18.0874C8.8512 17.9624 9.09339 17.7281 9.2262 17.5171C9.43714 17.189 9.46057 17.0953 9.43714 16.6343C9.4137 16.2359 9.35901 16.0484 9.20276 15.7984L8.99182 15.4781L9.2262 15.4312C9.53089 15.3609 9.92151 15.0328 10.0465 14.7124C10.2965 14.1109 10.0934 13.439 9.49964 12.9156C8.81995 12.3218 7.81214 12.1656 7.06214 12.5406ZM8.51526 13.4781C9.00745 13.7359 9.13245 14.2437 8.78089 14.5718C8.29651 15.0249 7.34339 14.6187 7.34339 13.9624C7.34339 13.4624 7.9762 13.1968 8.51526 13.4781ZM7.73401 15.5953C7.90589 15.6656 8.11682 15.8218 8.20276 15.939C8.37464 16.1734 8.40589 16.6343 8.28089 16.8843C8.07776 17.2593 7.27307 17.3921 6.82776 17.1187C6.69495 17.0406 6.52307 16.8374 6.44495 16.6734C6.31995 16.4078 6.31995 16.3453 6.4137 16.064C6.49182 15.8531 6.60901 15.7124 6.79651 15.6187C7.13245 15.439 7.32776 15.4312 7.73401 15.5953Z" fill="#43392F"/>
<path d="M27.5386 20.1582C25.3276 20.4082 23.5308 22.0566 23.0933 24.2363C22.8589 25.3613 22.9995 26.3925 23.5151 27.4628C24.3901 29.2675 26.1167 30.3457 28.1245 30.3378C29.5308 30.33 30.7183 29.8378 31.7183 28.83C32.9995 27.5488 33.4995 25.7207 33.0464 23.955C32.4214 21.5097 30.0386 19.8691 27.5386 20.1582ZM29.2183 21.4628C30.4839 21.8222 31.4995 22.8613 31.9058 24.2128C31.9761 24.4472 32.0308 24.7832 32.0308 24.955L32.0229 25.2753L31.8667 24.9785C31.7808 24.8222 31.6792 24.6894 31.6401 24.6894C31.6011 24.6894 31.4058 24.7675 31.2104 24.8613C31.0229 24.955 30.8511 25.0175 30.8276 24.9941C30.812 24.9785 30.4761 24.3144 30.0776 23.5175C29.6792 22.7207 29.3433 22.0566 29.3276 22.041C29.312 22.0175 29.0933 22.1035 28.8433 22.2207C28.4839 22.3925 28.3667 22.4941 28.2886 22.6972C28.2417 22.8378 28.062 23.1113 27.8979 23.2988L27.5933 23.6347L27.7886 24.0253C27.8979 24.2363 27.9995 24.4316 28.0151 24.4472C28.062 24.5019 28.4292 24.1425 28.6792 23.8066L28.8979 23.5019L29.3745 24.4472C29.6323 24.9628 29.8433 25.4238 29.8433 25.4707C29.8433 25.5097 29.6323 25.6503 29.3745 25.7832L28.9058 26.0175L29.1011 26.4082C29.2104 26.6269 29.312 26.7988 29.3276 26.7988C29.3433 26.7988 29.9448 26.5175 30.6636 26.1738C31.3823 25.83 31.9839 25.5488 32.0073 25.5488C32.0698 25.5488 31.9448 26.1894 31.812 26.5644C30.8433 29.2832 27.3823 30.0488 25.3354 28.0097C24.4448 27.1113 24.0073 25.83 24.2026 24.666C24.6167 22.2675 26.8823 20.8144 29.2183 21.4628Z" fill="#43392F"/>
<path d="M25.5776 23.8057C25.2651 23.9619 25.1479 24.0791 25.0386 24.3213C24.9604 24.4932 24.7808 24.7666 24.6323 24.9307L24.3667 25.2275L24.5698 25.6182C24.6792 25.8369 24.7964 26.0166 24.8354 26.0166C24.9136 26.0166 25.4683 25.415 25.5933 25.1885C25.6714 25.0557 25.7417 25.1729 26.1636 26.0479C26.4214 26.6025 26.6401 27.0713 26.6401 27.0791C26.6401 27.0947 26.4292 27.2119 26.1714 27.3447L25.7026 27.5791L25.8979 27.9697C26.0073 28.1885 26.1089 28.3604 26.1245 28.3604C26.1401 28.3604 26.7729 28.0635 27.5308 27.6963L28.9136 27.04L28.7104 26.6416C28.6011 26.4307 28.4761 26.251 28.4292 26.251C28.3901 26.251 28.187 26.3369 27.9761 26.4385L27.6011 26.6338L26.8745 25.1104C26.4683 24.2822 26.1089 23.5947 26.062 23.6025C26.0151 23.6025 25.7964 23.6963 25.5776 23.8057Z" fill="#43392F"/>
<path d="M27.8745 4.58781C27.5151 4.61906 27.4995 4.62687 27.4995 4.86906C27.4995 5.16594 27.812 8.46281 27.8433 8.50187C27.8589 8.50969 28.1167 8.49406 28.4292 8.47062L28.9917 8.41594L28.9448 7.90031C28.9136 7.61906 28.8354 6.75187 28.7651 5.97844L28.6323 4.57219L28.437 4.56437C28.3276 4.56437 28.0776 4.57219 27.8745 4.58781Z" fill="#43392F"/>
<path d="M33.5229 5.25168C33.4916 5.35324 33.226 6.0798 32.9447 6.87668C32.6635 7.67355 32.3979 8.41574 32.351 8.52512C32.2807 8.72824 32.2885 8.73605 32.8197 8.93137C33.1166 9.03293 33.3744 9.09543 33.3979 9.06418C33.4526 8.97043 34.5932 5.74387 34.6244 5.59543C34.6401 5.49387 34.5463 5.41574 34.2572 5.30637C33.601 5.05637 33.601 5.05637 33.5229 5.25168Z" fill="#43392F"/>
<path d="M37.4995 9.5791L36.1558 10.9541L36.5308 11.3369C36.7339 11.5479 36.9448 11.7197 36.9917 11.7197C37.0386 11.7197 37.6636 11.1025 38.3901 10.3447L39.7104 8.97754L39.3276 8.58691C39.1245 8.37598 38.9292 8.2041 38.8979 8.2041C38.8745 8.2041 38.2417 8.82129 37.4995 9.5791Z" fill="#43392F"/>
</svg>
