<svg width="40" height="40" viewBox="0 0 40 40" fill="none" xmlns="http://www.w3.org/2000/svg">
<path d="M32.5002 6.66505C33.0267 6.66359 33.5342 6.85846 33.9207 7.21048C34.3072 7.56249 34.544 8.04554 34.5835 8.56248V16.7574L36.5106 22.4394C36.5613 22.5935 36.5996 22.7512 36.6252 22.9112L36.6564 23.1574L36.6668 23.4035V33.3317H34.5835V31.2804H5.41683V33.3317H3.3335V23.4035C3.33512 23.158 3.3666 22.9135 3.42725 22.6753L3.48975 22.4394L5.41683 16.7574V8.71633C5.41617 8.22515 5.59454 7.75005 5.9195 7.37738C6.24447 7.00472 6.69445 6.75924 7.18766 6.68556L7.34391 6.6753L7.50016 6.66505H32.5002ZM34.5835 25.1266H5.41683V29.2291H34.5835V25.1266ZM33.1356 18.9727H6.87516L5.47933 23.0753H34.5418L33.1356 18.9727ZM32.5002 8.71633H7.50016V16.9215H9.5835V12.8189C9.58201 12.3005 9.77993 11.8008 10.1374 11.4202C10.495 11.0397 10.9856 10.8065 11.5106 10.7676H28.3335C28.86 10.7662 29.3675 10.961 29.754 11.313C30.1405 11.6651 30.3773 12.1481 30.4168 12.665V16.9215H32.5002V8.71633ZM18.9585 12.8189H11.6668V16.9215H18.9585V12.8189ZM28.3335 12.8189H21.0418V16.9215H28.3335V12.8189Z" fill="#43392F"/>
</svg>
