<svg width="41" height="40" viewBox="0 0 41 40" fill="none" xmlns="http://www.w3.org/2000/svg">
<path d="M24.6216 22.4932H27.3867" stroke="#43392F" stroke-width="2.30769" stroke-linecap="round" stroke-linejoin="round"/>
<path d="M10.9585 22.4932H13.7236" stroke="#43392F" stroke-width="2.30769" stroke-linecap="round" stroke-linejoin="round"/>
<path d="M5.33936 16.0518C14.5104 17.3521 23.819 17.3521 32.9901 16.0518" stroke="#43392F" stroke-width="2.30769" stroke-linecap="round" stroke-linejoin="round"/>
<path d="M5.34425 30.1148C5.34158 30.9663 6.03115 31.6581 6.88271 31.6581H9.93086C10.7805 31.6581 11.4693 30.9692 11.4693 30.1197V29.4891C11.4693 28.6395 12.1581 27.9506 13.0078 27.9506H25.3356C26.1853 27.9506 26.874 28.6395 26.874 29.4891V30.1197C26.874 30.9692 27.5628 31.6581 28.4125 31.6581H31.4817C32.3313 31.6581 33.0202 30.9692 33.0202 30.1197V22.0772C33.0193 20.8301 32.6213 19.6152 31.8842 18.6092L30.0906 16.2023C29.9471 15.9995 29.8314 15.7791 29.747 15.5455L28.1326 11.0616C27.7286 9.90904 26.6777 9.02909 25.4722 8.83422C21.3079 8.17765 17.0666 8.17765 12.9024 8.83422C11.7021 9.03405 10.6584 9.91298 10.2568 11.0616L8.64251 15.5455C8.55774 15.7697 8.44206 15.9809 8.29877 16.1731L6.47535 18.6837C5.75415 19.6789 5.36695 20.8772 5.36934 22.1065L5.34425 30.1148Z" stroke="#43392F" stroke-width="2.30769" stroke-linecap="round" stroke-linejoin="round"/>
</svg>
