<svg width="40" height="40" viewBox="0 0 40 40" fill="none" xmlns="http://www.w3.org/2000/svg">
<path fill-rule="evenodd" clip-rule="evenodd" d="M30.5553 6.24931C30.5536 5.37848 30.0234 4.82713 29.3228 5.0493C28.8818 5.18875 23.6893 8.66879 24.2958 21.157C24.3946 22.4528 24.9575 23.3268 25.9223 23.9933C26.8693 24.6468 27.119 25.4707 27.0266 26.5702C26.8093 29.168 26.6601 30.1928 26.5141 32.7972C26.4411 34.1107 27.4093 35.0658 28.6775 34.9962C29.7736 34.9362 30.5536 34.041 30.5553 32.794C30.5618 28.0393 30.5618 9.07744 30.5553 6.24931Z" stroke="#43392F" stroke-width="2.5" stroke-linecap="round" stroke-linejoin="round"/>
<path d="M19.4715 5.62305C19.5802 8.05713 19.6985 10.4896 19.7958 12.9237C19.8592 14.4999 19.3192 15.8556 18.1385 16.9016C16.5234 18.3303 16.1261 20.0898 16.345 22.1768C16.7472 26.0266 17.0423 28.3098 17.3163 32.1709C17.4267 33.7213 16.0336 34.9991 14.6212 34.9991C13.2071 34.9991 11.8141 33.7213 11.9244 32.1709C12.2001 28.3098 12.4936 26.0266 12.8958 22.1768C13.1147 20.0898 12.7174 18.3303 11.1022 16.9016C9.92167 15.8556 9.38167 14.4999 9.44491 12.9237C9.54221 10.4896 9.66059 8.05713 9.76924 5.62305" stroke="#43392F" stroke-width="2.5" stroke-linecap="round" stroke-linejoin="round"/>
<path d="M14.6128 11.5266L14.629 5.75195" stroke="#43392F" stroke-width="2.5" stroke-linecap="round" stroke-linejoin="round"/>
</svg>
