<svg width="41" height="40" viewBox="0 0 41 40" fill="none" xmlns="http://www.w3.org/2000/svg">
<path d="M16.6384 3.3964C15.2495 3.65197 12.981 5.78176 12.7032 7.14483C12.4717 8.08194 12.6106 8.20973 13.6754 8.20973C14.6014 8.20973 15.018 7.91156 15.4347 6.93185C15.8514 5.86695 16.2217 5.65398 17.4254 5.65398C19.9717 5.65398 20.6662 6.29291 20.6662 8.63569V10.7655H12.3328H3.99951V12.0434V13.3212H12.3328H20.7125L20.5736 16.6011C20.4347 19.5402 20.3421 19.9236 19.5088 20.094C18.9995 20.1792 18.0273 20.6051 17.3328 21.0311C15.7588 22.0534 14.8791 22.0534 12.9347 20.9459C10.8514 19.7532 8.21247 19.7532 6.40692 20.9459C5.61988 21.4144 4.78655 21.8404 4.50877 21.8404C4.23099 21.8404 3.99951 22.3516 3.99951 22.9479C3.99951 23.9702 4.1384 24.0128 5.24951 23.7572C5.99025 23.6294 6.86988 23.2035 7.28655 22.8627C8.30507 22.0534 10.8977 22.096 12.0088 22.9905C12.6106 23.5016 13.6291 23.7572 15.1106 23.7572C16.5921 23.7572 17.6106 23.5016 18.2125 22.9905C19.3699 22.0534 21.9625 22.0534 23.1199 23.0331C23.7217 23.5016 24.7403 23.7572 26.2217 23.7572C27.7032 23.7572 28.7217 23.5016 29.3236 23.0331C30.4347 22.096 33.0273 22.0534 34.0458 22.8627C34.4625 23.2035 35.3421 23.6294 36.0828 23.7572C37.194 24.0128 37.3328 23.9276 37.3328 23.0331C37.3328 22.2664 36.8699 21.7978 35.3884 21.1163C34.2773 20.6051 33.0273 20.094 32.6106 19.9662C31.9162 19.7532 31.7773 19.1995 31.7773 16.5159V13.3212H34.5551H37.3328V12.0434C37.3328 10.7655 37.3328 10.7655 34.6014 10.7655H31.9162L31.6384 8.63569C31.4995 7.4856 31.0365 6.07994 30.6199 5.52619C29.0921 3.3964 25.6199 2.75746 23.2588 4.16312C22.194 4.80206 21.9162 4.84465 21.0365 4.29091C19.7403 3.52418 18.0273 3.18342 16.6384 3.3964ZM28.1199 6.07994C28.8143 6.4207 28.9995 7.01704 28.9995 8.63569V10.7655H26.2217H23.444V9.01905C23.444 6.59109 24.0921 5.65398 25.8051 5.65398C26.5921 5.65398 27.6106 5.86695 28.1199 6.07994ZM28.9995 16.9845C28.9995 20.0088 28.8606 20.7755 28.2125 21.2441C27.1014 22.0108 25.7125 21.9682 24.4625 21.1589C23.5365 20.5625 23.444 20.1366 23.444 16.8993V13.3212H26.2217H28.9995V16.9845Z" fill="#43392F"/>
<path d="M8.39766 26.44C7.8884 26.5252 6.91618 26.9938 6.22173 27.4198C5.57359 27.8883 4.78655 28.2291 4.50877 28.2291C4.23099 28.2291 3.99951 28.7402 3.99951 29.3366C3.99951 30.3589 4.1384 30.4015 5.29581 30.1459C5.99025 30.0181 6.86988 29.5921 7.28655 29.2514C8.30507 28.4421 10.8977 28.4846 12.0088 29.3792C12.6106 29.8903 13.6291 30.1459 15.1106 30.1459C16.5921 30.1459 17.6106 29.8903 18.2125 29.3792C18.7217 28.9958 19.8328 28.655 20.6662 28.655C21.4995 28.655 22.6106 28.9958 23.1199 29.3792C24.3236 30.4015 28.1199 30.4015 29.3236 29.3792C30.4347 28.4846 33.0273 28.4421 34.0458 29.2514C34.4625 29.5921 35.3421 30.0181 36.0828 30.1459C37.194 30.4015 37.3328 30.3163 37.3328 29.4644C37.3328 28.6976 36.7773 28.1865 35.3884 27.4198C32.981 26.1419 30.481 26.0993 28.6291 27.3346C27.8421 27.8031 26.8699 28.2291 26.4532 28.2291C25.9903 28.2291 24.9254 27.8031 24.0458 27.3346C23.1199 26.8234 21.6847 26.3975 20.6662 26.3975C19.6014 26.3975 18.3514 26.7808 17.518 27.3346C15.8051 28.4421 14.9254 28.4421 13.0736 27.4198C11.4069 26.4826 9.69396 26.1419 8.39766 26.44Z" fill="#43392F"/>
<path d="M8.39766 32.8297C7.8884 32.9149 6.91618 33.3834 6.22173 33.8094C5.57359 34.278 4.78655 34.6187 4.50877 34.6187C4.23099 34.6187 3.99951 35.1299 3.99951 35.7262C3.99951 36.7485 4.1384 36.7911 5.29581 36.5355C5.99025 36.4077 6.86988 35.9818 7.28655 35.641C8.30507 34.8317 10.8977 34.8743 12.0088 35.7688C12.6106 36.28 13.6291 36.5355 15.1106 36.5355C16.5921 36.5355 17.6106 36.28 18.2125 35.7688C19.3699 34.8317 21.9625 34.8317 23.1199 35.7688C24.3236 36.7911 28.1199 36.7911 29.3236 35.8114C30.4347 34.8743 33.0273 34.8317 34.0458 35.641C34.4625 35.9818 35.3421 36.4077 36.0828 36.5355C37.194 36.7911 37.3328 36.7059 37.3328 35.854C37.3328 35.0873 36.7773 34.5761 35.3884 33.8094C32.981 32.5315 30.481 32.4889 28.6291 33.7242C27.8421 34.1928 26.8699 34.6187 26.4532 34.6187C25.9903 34.6187 24.9254 34.1928 24.0458 33.7242C23.1199 33.2131 21.6847 32.7871 20.6662 32.7871C19.6014 32.7871 18.3514 33.1705 17.518 33.7242C15.8051 34.8317 14.9254 34.8317 13.0736 33.8094C11.4069 32.8723 9.69396 32.5315 8.39766 32.8297Z" fill="#43392F"/>
</svg>
