<svg width="40" height="40" viewBox="0 0 40 40" fill="none" xmlns="http://www.w3.org/2000/svg">
<path d="M24.2107 11.4154V9.16628C24.2107 6.63177 21.9663 4.68425 19.4578 5.04262L11.9742 6.11123C9.92126 6.40312 8.39697 8.1609 8.39697 10.2333V28.1972" stroke="#43392F" stroke-width="2.5" stroke-linecap="round" stroke-linejoin="round"/>
<path fill-rule="evenodd" clip-rule="evenodd" d="M16.8198 18.8075C16.8198 14.6061 20.324 11.2235 24.5693 11.4245C28.5455 11.611 31.6037 15.0358 31.6037 19.0167C31.6037 19.787 30.9795 20.4114 30.2092 20.4114H18.2143C17.4442 20.4114 16.8198 19.787 16.8198 19.0167V18.8075Z" stroke="#43392F" stroke-width="2.5" stroke-linecap="round" stroke-linejoin="round"/>
<path d="M19.5801 25.3838V28.9853M19.5801 33.3428V35M28.8424 25.3838V28.9853M28.8424 33.3428V35M24.2121 32.7435V30.5446M24.2121 26.1881V25.3838" stroke="#43392F" stroke-width="2.5" stroke-linecap="round" stroke-linejoin="round"/>
</svg>
